<svg width="178" height="177" viewBox="0 0 178 177" fill="none" xmlns="http://www.w3.org/2000/svg">
<path fill-rule="evenodd" clip-rule="evenodd" d="M102.818 1.14703C103.662 0.36869 104.709 0 105.745 0C107.352 0 108.931 0.888562 109.677 2.50572L115.888 15.9639C116.831 18.0083 119.194 18.9836 121.311 18.2024L135.259 13.0592C138.015 12.0419 140.964 14.0034 141.075 16.9275L141.641 31.7288C141.726 33.976 143.535 35.7775 145.791 35.8624L160.655 36.4252C163.591 36.5364 165.561 39.4732 164.539 42.2169L159.374 56.1072C158.59 58.2149 159.569 60.5685 161.622 61.5078L175.137 67.6926C177.807 68.9147 178.498 72.3763 176.501 74.5231L166.391 85.3868C164.856 87.0371 164.856 89.5838 166.391 91.2332L176.501 102.098C178.498 104.244 177.807 107.707 175.137 108.928L161.622 115.113C159.569 116.052 158.59 118.406 159.374 120.514L164.539 134.404C165.561 137.149 163.591 140.084 160.655 140.195L145.791 140.759C143.535 140.844 141.726 142.645 141.641 144.892L141.075 159.693C140.964 162.618 138.015 164.579 135.259 163.563L121.311 158.42C119.194 157.638 116.831 158.613 115.888 160.657L109.677 174.115C108.45 176.774 104.974 177.463 102.818 175.474L91.9089 165.407C90.2517 163.878 87.6944 163.878 86.0381 165.407L75.128 175.474C72.9732 177.463 69.4952 176.774 68.2689 174.115L62.0582 160.657C61.115 158.613 58.7516 157.638 56.635 158.42L42.6866 163.563C39.9305 164.579 36.9833 162.618 36.8716 159.693L36.3055 144.892C36.2193 142.645 34.4113 140.844 32.1546 140.759L17.2914 140.195C14.3551 140.084 12.3854 137.149 13.406 134.404L18.5706 120.514C19.3551 118.406 18.3767 116.052 16.3237 115.113L2.80929 108.928C0.139306 107.707 -0.552186 104.244 1.44491 102.098L11.5538 91.2332C13.0896 89.5838 13.0896 87.0371 11.5538 85.3868L1.44491 74.5231C-0.552186 72.3763 0.139306 68.9147 2.80929 67.6926L16.3237 61.5078C18.3767 60.5685 19.3551 58.2149 18.5706 56.1072L13.406 42.2169C12.3854 39.4732 14.3551 36.5364 17.2914 36.4252L32.1546 35.8624C34.4113 35.7775 36.2193 33.976 36.3055 31.7288L36.8716 16.9275C36.9833 14.0034 39.9305 12.0419 42.6866 13.0592L56.635 18.2024C58.7516 18.9836 61.115 18.0083 62.0582 15.9639L68.2689 2.50572C69.0153 0.888562 70.5941 0 72.2024 0C73.2377 0 74.2837 0.36869 75.128 1.14703L86.0381 11.2148C87.6944 12.7432 90.2517 12.7432 91.9089 11.2148L102.818 1.14703ZM111.624 63.7761L114.341 66.462L125.209 77.2024V88.9674V134.49H108.001V86.9905L101.72 80.7828H78.1128V134.49H60.9036V36.9227H78.1128V63.7761H92.3599H111.624Z" fill="white"/>
</svg>
